<?xml version="1.0" encoding="UTF-8"?>
<!-- Generator: visioncortex VTracer 0.6.3 -->
<svg version="1.1" xmlns="http://www.w3.org/2000/svg" width="1280" height="1280">
<path d="M0 0 C422.4 0 844.8 0 1280 0 C1280 422.4 1280 844.8 1280 1280 C857.6 1280 435.2 1280 0 1280 C0 857.6 0 435.2 0 0 Z " fill="#FCFCFC" transform="translate(0,0)"/>
<path d="M0 0 C2.44 -0 4.87 -0.01 7.31 -0.02 C13.21 -0.03 19.11 -0.03 25.01 -0.03 C29.8 -0.03 34.6 -0.03 39.39 -0.03 C40.08 -0.03 40.76 -0.03 41.47 -0.03 C42.86 -0.03 44.25 -0.04 45.64 -0.04 C58.66 -0.05 71.67 -0.05 84.68 -0.04 C96.58 -0.03 108.48 -0.05 120.38 -0.07 C132.62 -0.08 144.86 -0.09 157.1 -0.09 C163.96 -0.09 170.82 -0.09 177.69 -0.1 C184.13 -0.12 190.58 -0.11 197.03 -0.1 C199.39 -0.1 201.76 -0.1 204.12 -0.11 C207.35 -0.12 210.58 -0.11 213.8 -0.1 C215.21 -0.11 215.21 -0.11 216.65 -0.12 C221.8 -0.08 225.4 0.39 229.85 3.27 C233.3 7.26 236.18 12.04 236.48 17.4 C235.16 25.59 231.16 30.42 225.37 36.2 C223.62 38.14 223.62 38.14 223.97 40.45 C224.77 42.53 224.77 42.53 227.29 43.77 C232.47 44.5 236.26 42.58 240.85 40.27 C241.18 39.94 241.51 39.61 241.85 39.27 C243.78 38.82 245.72 38.41 247.67 38.02 C253.73 36.77 259.73 35.31 265.73 33.77 C283.96 29.17 301.55 27.24 320.35 27.09 C321.37 27.07 322.38 27.06 323.43 27.05 C329.27 27.04 334.26 27.59 339.85 29.27 C339.85 29.93 339.85 30.59 339.85 31.27 C337.87 31.27 335.89 31.27 333.85 31.27 C333.85 31.93 333.85 32.59 333.85 33.27 C333.2 33.52 332.55 33.76 331.87 34.01 C319.74 38.49 307.68 43.02 295.85 48.27 C292.34 49.79 288.81 51.29 285.27 52.75 C277.72 55.89 270.54 59.4 263.48 63.52 C262.75 63.95 262.02 64.37 261.26 64.81 C260.58 65.22 259.9 65.62 259.21 66.04 C258.61 66.4 258.01 66.76 257.39 67.13 C255.55 68.37 255.55 68.37 253.85 71.27 C254.25 71.77 254.66 72.27 255.07 72.79 C262.44 82.09 269.05 91.9 275.41 101.91 C277.33 104.93 279.27 107.91 281.29 110.86 C287.34 119.71 292.66 128.81 297.75 138.25 C298.75 140.08 299.78 141.9 300.81 143.72 C301.36 144.69 301.91 145.65 302.48 146.65 C302.95 147.46 303.41 148.27 303.89 149.11 C304.85 151.27 304.85 151.27 304.85 155.27 C305.51 155.27 306.17 155.27 306.85 155.27 C309.93 160.57 309.93 160.57 309.54 164.15 C309.31 164.85 309.09 165.55 308.85 166.27 C302.58 164.17 298.57 159.75 293.85 155.27 C293.21 154.67 292.56 154.07 291.9 153.44 C288.06 149.75 284.82 145.77 281.61 141.53 C279.44 138.74 277.11 136.11 274.72 133.49 C272.85 131.27 272.85 131.27 271.74 129.69 C267.21 123.28 261.72 117.87 256.16 112.37 C254.48 110.72 252.82 109.05 251.15 107.39 C241.06 97.18 241.06 97.18 229.85 88.27 C226.07 88.42 223.78 90.72 220.98 93.09 C220.01 93.9 219.05 94.71 218.05 95.54 C214.02 98.98 210 102.43 205.98 105.9 C202.61 108.8 199.19 111.61 195.67 114.34 C185.7 122.27 177.85 131.53 170.17 141.58 C167.45 145.09 164.58 148.47 161.73 151.87 C159.88 154.24 158.4 156.7 156.85 159.27 C154.34 161.72 152.75 163.1 149.29 163.77 C146 163.1 144.87 161.93 142.85 159.27 C142.1 156.52 142.1 156.52 141.85 154.27 C142.51 154.27 143.17 154.27 143.85 154.27 C143.19 153.61 142.53 152.95 141.85 152.27 C141.44 149.71 141.44 149.71 141.23 146.71 C141.12 145.23 141.12 145.23 141 143.71 C140.85 141.27 140.85 141.27 140.85 140.27 C138.52 142.53 136.28 144.77 134.2 147.26 C122.07 161.75 106.54 170.44 87.85 173.27 C84.29 173.53 80.74 173.55 77.17 173.54 C76.14 173.54 75.11 173.54 74.05 173.55 C70.63 173.56 67.21 173.55 63.79 173.55 C61.33 173.55 58.86 173.56 56.4 173.56 C50.42 173.58 44.44 173.58 38.46 173.58 C33.6 173.58 28.74 173.58 23.88 173.58 C23.19 173.58 22.49 173.58 21.78 173.58 C20.37 173.58 18.96 173.59 17.55 173.59 C4.37 173.6 -8.82 173.6 -22.01 173.59 C-34.06 173.58 -46.12 173.6 -58.18 173.61 C-70.58 173.63 -82.97 173.64 -95.37 173.64 C-102.32 173.64 -109.27 173.64 -116.23 173.65 C-122.76 173.67 -129.3 173.66 -135.83 173.65 C-138.23 173.65 -140.63 173.65 -143.03 173.66 C-146.3 173.67 -149.57 173.66 -152.84 173.65 C-153.79 173.66 -154.74 173.66 -155.72 173.67 C-164.26 173.6 -169.94 171.18 -176.15 165.27 C-177.09 162.46 -177.37 160.46 -177.46 157.52 C-177.5 156.7 -177.53 155.88 -177.57 155.04 C-176.59 148.65 -172.1 143.74 -167.96 139.02 C-166.97 137.88 -165.99 136.74 -165.01 135.6 C-164.52 135.04 -164.04 134.48 -163.54 133.9 C-161.53 131.56 -159.59 129.17 -157.65 126.77 C-154.41 122.79 -151.11 118.87 -147.77 114.96 C-143.37 109.8 -139.16 104.51 -134.99 99.16 C-132.07 95.41 -129.04 91.79 -125.87 88.24 C-123.02 84.99 -120.32 81.61 -117.59 78.25 C-115.02 75.12 -112.4 72.04 -109.77 68.96 C-105.99 64.53 -102.34 60.01 -98.77 55.4 C-94.32 49.66 -89.65 44.14 -84.85 38.69 C-81.6 34.98 -78.46 31.2 -75.4 27.34 C-62.78 11.88 -46.16 2.69 -26.33 0.46 C-17.59 -0.27 -8.76 -0.01 0 0 Z " fill="#000000" transform="translate(844.146240234375,42.725341796875)"/>
<path d="M0 0 C1.03 -0 2.07 -0.01 3.14 -0.01 C6.6 -0.02 10.07 -0.02 13.53 -0.02 C16.02 -0.03 18.5 -0.03 20.99 -0.04 C27.74 -0.05 34.49 -0.06 41.24 -0.06 C45.45 -0.06 49.67 -0.07 53.88 -0.07 C65.56 -0.08 77.23 -0.09 88.9 -0.1 C89.65 -0.1 90.39 -0.1 91.16 -0.1 C91.91 -0.1 92.66 -0.1 93.43 -0.1 C94.95 -0.1 96.46 -0.1 97.98 -0.1 C98.73 -0.1 99.48 -0.1 100.26 -0.1 C112.45 -0.1 124.65 -0.12 136.84 -0.15 C149.37 -0.17 161.89 -0.18 174.42 -0.18 C181.45 -0.18 188.48 -0.19 195.51 -0.21 C202.12 -0.22 208.72 -0.23 215.33 -0.22 C217.76 -0.22 220.19 -0.22 222.62 -0.23 C225.92 -0.24 229.23 -0.24 232.54 -0.23 C233.51 -0.24 234.47 -0.24 235.47 -0.25 C240.37 -0.22 243.74 -0.07 247.71 3.14 C251.2 7.12 253.57 11.76 253.89 17.09 C253.09 26.01 246.33 32.71 240.71 39.14 C243.99 42.05 243.99 42.05 247.96 43.64 C251.34 43.02 254.08 41.68 257.18 40.22 C262.72 37.85 268.66 36.65 274.49 35.21 C277.33 34.5 280.14 33.75 282.95 32.96 C306.64 26.44 330.31 25.64 354.71 26.14 C354.71 26.8 354.71 27.46 354.71 28.14 C355.37 28.14 356.03 28.14 356.71 28.14 C356.71 28.8 356.71 29.46 356.71 30.14 C355.84 30.44 354.96 30.75 354.07 31.06 C346.16 33.84 338.42 36.85 330.71 40.14 C324.62 42.71 318.53 45.22 312.33 47.52 C306.17 49.84 300.42 52.72 294.61 55.78 C291.71 57.14 291.71 57.14 288.71 57.14 C288.71 57.8 288.71 58.46 288.71 59.14 C287.39 59.14 286.07 59.14 284.71 59.14 C284.71 59.8 284.71 60.46 284.71 61.14 C284.18 61.39 283.65 61.65 283.1 61.91 C279.37 63.72 275.91 65.47 272.71 68.14 C273.11 73.43 276.04 76.58 279.21 80.58 C284.31 87.2 288.96 93.94 293.38 101.03 C294.96 103.54 296.56 106.05 298.16 108.55 C299.41 110.5 300.65 112.45 301.89 114.39 C302.48 115.3 303.06 116.21 303.66 117.15 C309.43 126.21 314.93 135.17 319.39 144.95 C322.18 151.09 322.18 151.09 325.43 156.98 C327.17 159.94 327.38 162.76 327.71 166.14 C318.73 164.82 311.17 154.83 305.71 148.14 C304.39 146.6 303.08 145.05 301.76 143.51 C297.85 138.91 294 134.28 290.21 129.58 C281.66 119.14 272.41 109.81 262.5 100.68 C259.33 97.75 256.27 94.72 253.26 91.61 C251.12 89.58 249.33 88.26 246.4 87.71 C242.56 88.33 240.36 90.53 237.58 93.08 C236.43 94.1 235.27 95.11 234.11 96.13 C233.54 96.64 232.97 97.15 232.38 97.67 C229.99 99.77 227.54 101.77 225.08 103.77 C224.2 104.49 223.31 105.21 222.4 105.96 C220.56 107.45 218.71 108.94 216.86 110.42 C208.47 117.17 201.32 124.16 194.7 132.66 C192.84 134.97 190.91 137.15 188.89 139.33 C184.71 143.95 181.1 148.94 177.48 154 C177.03 154.62 176.58 155.24 176.13 155.88 C175.73 156.44 175.34 156.99 174.93 157.57 C173.6 159.27 172.38 160.76 170.71 162.14 C167.02 162.33 167.02 162.33 163.71 162.14 C163.71 161.48 163.71 160.82 163.71 160.14 C162.72 159.81 161.73 159.48 160.71 159.14 C159.2 155.49 159.37 151.3 159.14 147.39 C159.1 146.69 159.06 146 159.01 145.28 C158.91 143.57 158.81 141.85 158.71 140.14 C156.18 142.66 153.67 145.18 151.2 147.75 C134.36 165.12 117.37 171.96 93.41 172.38 C87.99 172.43 82.58 172.43 77.16 172.43 C74.72 172.44 72.28 172.44 69.83 172.45 C63.93 172.47 58.02 172.47 52.11 172.47 C47.31 172.48 42.51 172.48 37.71 172.49 C24.06 172.5 10.42 172.51 -3.22 172.51 C-4.32 172.51 -4.32 172.51 -5.44 172.51 C-6.54 172.51 -6.54 172.51 -7.67 172.51 C-19.58 172.51 -31.5 172.53 -43.41 172.56 C-55.67 172.59 -67.94 172.6 -80.2 172.6 C-87.08 172.6 -93.95 172.6 -100.82 172.62 C-107.28 172.64 -113.73 172.64 -120.19 172.63 C-122.55 172.63 -124.92 172.63 -127.29 172.64 C-130.52 172.66 -133.75 172.65 -136.99 172.63 C-137.92 172.65 -138.85 172.66 -139.82 172.67 C-145.8 172.6 -150.29 171.5 -155.29 168.14 C-159.14 164.05 -159.66 159.89 -159.56 154.46 C-158.38 144.28 -146.92 134.68 -140.57 127.24 C-136.73 122.71 -133.06 118.06 -129.42 113.37 C-125.87 108.82 -122.17 104.42 -118.42 100.03 C-115.12 96.17 -111.97 92.21 -108.86 88.2 C-104.65 82.79 -100.27 77.57 -95.77 72.39 C-92.32 68.4 -89.02 64.31 -85.79 60.14 C-81.54 54.65 -77.11 49.35 -72.56 44.11 C-69.74 40.86 -67.04 37.56 -64.42 34.14 C-51.61 18.11 -36.83 5.27 -16.29 1.14 C-15.03 0.88 -15.03 0.88 -13.74 0.61 C-9.15 -0.02 -4.63 -0 0 0 Z " fill="#000000" transform="translate(851.2927398681641,500.85955810546875)"/>
<path d="M0 0 C0.82 0.64 1.65 1.27 2.5 1.93 C3.84 2.89 3.84 2.89 5.21 3.88 C20.05 15.1 28.89 31.58 32.02 49.83 C35.03 73.17 30 96.57 16.5 115.93 C15.6 117.21 15.6 117.21 14.69 118.53 C3.51 133.54 -12.78 141.52 -30.85 144.42 C-32.66 144.67 -32.66 144.67 -34.5 144.93 C-35.63 145.11 -36.75 145.29 -37.91 145.48 C-66.52 149.02 -97.78 143 -120.91 125.25 C-128.85 118.14 -135.58 109.9 -139.5 99.93 C-139.76 99.35 -140.02 98.77 -140.28 98.18 C-147.46 81.88 -148.91 61.06 -142.89 44.11 C-136.89 30.36 -130.09 18.41 -119.57 7.55 C-119.1 7.06 -118.64 6.57 -118.16 6.07 C-111.59 -0.45 -103.39 -3.78 -94.75 -6.7 C-93.88 -7 -93.01 -7.3 -92.12 -7.61 C-85.33 -9.9 -78.56 -11.76 -71.5 -13.07 C-70.65 -13.26 -69.79 -13.44 -68.91 -13.62 C-45.74 -16.68 -19.19 -14.34 0 0 Z " fill="#000000" transform="translate(536.50390625,517.07421875)"/>
<path d="M0 0 C2.39 -0 4.77 -0.04 7.15 -0.08 C26.45 -0.22 48.91 3.59 63.35 17.37 C64.47 18.41 64.47 18.41 65.61 19.48 C82.36 36.45 85.66 60.09 85.66 82.92 C85.44 103.51 81.5 123.07 66.64 138.26 C63.04 141.58 59.38 144.6 55.35 147.37 C54.72 147.82 54.1 148.27 53.45 148.73 C31.63 162.66 -2.56 161.52 -26.84 156.37 C-38.09 153.41 -48.21 149.3 -57.65 142.37 C-58.3 141.9 -58.96 141.43 -59.63 140.94 C-74.17 129.55 -78.84 110.79 -81.25 93.36 C-83.87 70.61 -80.49 44.11 -66.48 25.48 C-49.45 5.85 -25.04 -0.01 0 0 Z " fill="#000000" transform="translate(485.649169921875,52.62939453125)"/>
<path d="M0 0 C1.05 0 2.1 0 3.19 0 C6.51 0.01 9.83 0.02 13.15 0.04 C15.42 0.04 17.68 0.04 19.95 0.05 C25.47 0.06 31 0.08 36.52 0.1 C38.85 4.26 38.85 8.08 38.9 12.75 C38.92 13.61 38.94 14.47 38.95 15.35 C39.01 18.1 39.05 20.85 39.09 23.6 C39.15 27.17 39.21 30.74 39.28 34.32 C39.3 35.64 39.3 35.64 39.33 36.99 C39.51 46.37 40.01 55.73 40.52 65.1 C51.08 65.1 61.64 65.1 72.52 65.1 C72.5 60.65 72.48 56.19 72.45 51.61 C72.44 48.06 72.43 44.52 72.42 40.97 C72.41 37.23 72.4 33.48 72.37 29.74 C72.35 26.13 72.34 22.53 72.33 18.92 C72.33 17.55 72.32 16.17 72.31 14.79 C72.3 12.87 72.3 10.94 72.3 9.02 C72.29 7.92 72.29 6.82 72.28 5.69 C72.52 3.1 72.52 3.1 74.52 1.1 C77.11 0.78 77.11 0.78 80.4 0.68 C82.23 0.62 82.23 0.62 84.1 0.57 C85.42 0.53 86.73 0.5 88.09 0.47 C89.44 0.44 90.79 0.4 92.14 0.37 C95.59 0.28 99.05 0.21 102.5 0.14 C104.45 0.1 106.4 0.05 108.34 -0.01 C111.8 -0.1 115.25 -0.16 118.71 -0.21 C119.76 -0.24 120.81 -0.27 121.89 -0.31 C123.34 -0.32 123.34 -0.32 124.82 -0.33 C125.66 -0.34 126.5 -0.36 127.36 -0.37 C129.52 0.1 129.52 0.1 131.14 1.74 C132.91 4.76 132.9 6.74 132.89 10.23 C132.9 11.49 132.9 12.74 132.91 14.04 C132.9 15.43 132.89 16.82 132.88 18.21 C132.88 19.68 132.88 21.15 132.89 22.61 C132.89 26.6 132.88 30.58 132.86 34.56 C132.85 38.72 132.85 42.88 132.85 47.04 C132.84 54.03 132.83 61.02 132.8 68 C132.78 76.98 132.77 85.96 132.76 94.94 C132.76 102.65 132.74 110.36 132.73 118.07 C132.73 120.55 132.72 123.04 132.72 125.52 C132.72 129.41 132.71 133.31 132.69 137.2 C132.69 138.64 132.68 140.07 132.68 141.5 C132.68 143.45 132.67 145.4 132.66 147.35 C132.66 148.44 132.66 149.53 132.65 150.66 C132.52 153.1 132.52 153.1 131.52 154.1 C129.79 154.21 128.05 154.25 126.32 154.26 C125.21 154.27 124.09 154.28 122.95 154.29 C121.13 154.29 121.13 154.29 119.28 154.3 C118.05 154.31 116.81 154.31 115.54 154.32 C112.92 154.33 110.3 154.33 107.69 154.34 C105 154.34 102.31 154.36 99.62 154.38 C95.76 154.41 91.89 154.42 88.03 154.43 C86.82 154.44 85.62 154.45 84.38 154.46 C83.26 154.46 82.14 154.46 80.99 154.45 C80 154.46 79.02 154.46 78 154.47 C75.52 154.1 75.52 154.1 73.71 152.93 C72.04 150.35 72.13 148.42 72.11 145.36 C72.09 144.18 72.07 143 72.06 141.79 C72.05 140.52 72.05 139.24 72.05 137.93 C72.02 135.94 72 133.95 71.98 131.96 C71.95 129.18 71.93 126.39 71.91 123.6 C71.88 118.71 71.83 113.83 71.78 108.94 C71.75 106.34 71.73 103.73 71.71 101.13 C71.7 99.96 71.69 98.79 71.68 97.58 C71.67 96.54 71.67 95.51 71.66 94.44 C71.79 92.14 71.79 92.14 70.52 91.1 C68.15 91.01 65.8 90.98 63.43 91 C62.72 91 62.01 91 61.28 91 C59.01 91.01 56.73 91.02 54.46 91.04 C52.92 91.04 51.39 91.04 49.85 91.05 C46.07 91.06 42.3 91.08 38.52 91.1 C38.53 91.87 38.53 92.65 38.53 93.44 C38.55 100.73 38.57 108.01 38.58 115.3 C38.58 119.04 38.59 122.79 38.6 126.53 C38.61 130.14 38.62 133.76 38.62 137.37 C38.62 138.75 38.62 140.13 38.63 141.51 C38.64 143.44 38.64 145.37 38.64 147.29 C38.64 148.39 38.64 149.49 38.64 150.62 C38.52 153.1 38.52 153.1 37.52 154.1 C35.72 154.2 33.92 154.24 32.12 154.24 C30.39 154.25 30.39 154.25 28.62 154.26 C27.36 154.26 26.1 154.26 24.81 154.27 C23.53 154.27 22.25 154.27 20.93 154.28 C18.21 154.28 15.49 154.28 12.78 154.28 C9.29 154.28 5.81 154.3 2.32 154.31 C-0.99 154.33 -4.31 154.33 -7.63 154.33 C-8.88 154.34 -10.14 154.34 -11.43 154.35 C-12.59 154.35 -13.75 154.34 -14.94 154.34 C-15.96 154.34 -16.99 154.34 -18.04 154.34 C-20.48 154.1 -20.48 154.1 -22.48 152.1 C-22.73 149.53 -22.73 149.53 -22.72 146.21 C-22.73 144.96 -22.73 143.71 -22.74 142.42 C-22.73 141.02 -22.73 139.62 -22.72 138.22 C-22.72 136.76 -22.72 135.29 -22.73 133.83 C-22.73 129.84 -22.72 125.86 -22.71 121.87 C-22.7 117.71 -22.71 113.54 -22.71 109.38 C-22.7 102.39 -22.7 95.39 -22.68 88.4 C-22.67 80.3 -22.66 72.21 -22.66 64.11 C-22.66 56.34 -22.66 48.56 -22.65 40.78 C-22.65 37.47 -22.64 34.16 -22.64 30.84 C-22.64 26.94 -22.64 23.04 -22.63 19.14 C-22.62 17.71 -22.62 16.27 -22.62 14.84 C-22.62 12.89 -22.62 10.93 -22.61 8.98 C-22.61 7.34 -22.61 7.34 -22.61 5.67 C-22.48 3.1 -22.48 3.1 -21.48 1.1 C-14.53 -0.42 -7.07 -0.04 0 0 Z " fill="#000000" transform="translate(246.4765625,505.90234375)"/>
<path d="M0 0 C1.23 0.01 1.23 0.01 2.48 0.01 C3.36 0.02 4.25 0.03 5.17 0.04 C6.11 0.05 7.05 0.06 8.02 0.06 C11.14 0.08 14.26 0.12 17.38 0.15 C19.56 0.17 21.74 0.18 23.91 0.2 C28.49 0.24 33.06 0.29 37.64 0.34 C43.46 0.4 49.29 0.45 55.11 0.49 C59.62 0.52 64.12 0.57 68.63 0.61 C70.77 0.64 72.92 0.65 75.06 0.67 C90.09 0.78 104.76 1.21 119.3 5.41 C120.06 5.63 120.82 5.84 121.61 6.07 C126.94 7.67 131.58 9.45 135.86 13.1 C136.72 13.78 136.72 13.78 137.6 14.47 C146.89 22.69 153.81 36.85 154.86 49.1 C155.58 61.7 153.43 72.1 147.42 83.1 C145.79 85.87 145.79 85.87 145.46 88.31 C144.52 91.13 142.41 91.73 139.86 93.1 C138.25 94.23 136.64 95.38 135.05 96.53 C118.51 108.05 100.91 107.57 81.36 107.72 C77.97 107.76 74.57 107.8 71.18 107.84 C69.08 107.87 66.99 107.89 64.89 107.91 C59.78 107.96 54.9 108.22 49.86 109.1 C49.85 109.66 49.84 110.22 49.83 110.8 C49.72 116.62 49.61 122.44 49.49 128.27 C49.45 130.44 49.4 132.62 49.36 134.79 C49.31 137.91 49.24 141.03 49.18 144.15 C49.16 145.13 49.14 146.11 49.13 147.12 C49.11 148.02 49.09 148.92 49.07 149.85 C49.05 150.65 49.04 151.45 49.02 152.27 C48.86 154.1 48.86 154.1 47.86 155.1 C46.13 155.22 44.39 155.27 42.65 155.29 C41.54 155.3 40.43 155.32 39.29 155.34 C34.2 155.38 29.11 155.42 24.03 155.45 C21.34 155.46 18.65 155.49 15.96 155.53 C12.1 155.58 8.23 155.6 4.37 155.62 C2.56 155.65 2.56 155.65 0.71 155.69 C-0.4 155.69 -1.52 155.68 -2.67 155.68 C-3.66 155.69 -4.64 155.7 -5.66 155.7 C-8.14 155.1 -8.14 155.1 -9.77 152.94 C-11.34 149.68 -11.52 147.57 -11.52 143.97 C-11.53 142.74 -11.54 141.51 -11.55 140.24 C-11.54 138.89 -11.53 137.53 -11.53 136.17 C-11.53 134.74 -11.54 133.3 -11.54 131.87 C-11.56 127.98 -11.55 124.09 -11.54 120.21 C-11.53 116.14 -11.54 112.07 -11.55 108 C-11.55 101.17 -11.54 94.34 -11.53 87.51 C-11.51 79.6 -11.52 71.7 -11.54 63.8 C-11.55 57.02 -11.55 50.24 -11.54 43.45 C-11.54 39.4 -11.54 35.35 -11.55 31.3 C-11.56 27.49 -11.55 23.69 -11.53 19.88 C-11.53 18.48 -11.53 17.08 -11.54 15.68 C-11.54 13.78 -11.53 11.87 -11.52 9.97 C-11.52 8.9 -11.52 7.83 -11.52 6.73 C-11.14 4.1 -11.14 4.1 -9.86 2.29 C-6.74 0.13 -3.72 -0.03 0 0 Z " fill="#000000" transform="translate(591.1385040283203,504.9042510986328)"/>
<path d="M0 0 C4.96 5.72 8.73 12.27 12.46 18.84 C12.9 19.56 13.35 20.27 13.8 21.01 C14.7 23.52 14.04 25.28 13.46 27.84 C9.9 27.99 6.34 28.07 2.77 28.15 C1.77 28.19 0.76 28.24 -0.28 28.28 C-7.79 28.4 -7.79 28.4 -11.57 25.57 C-12.54 24.22 -12.54 24.22 -13.54 22.84 C-14.04 22.15 -14.54 21.46 -15.06 20.74 C-15.7 19.77 -15.7 19.77 -16.35 18.78 C-20.59 13.02 -26.37 10.68 -33.27 9.15 C-40.95 8.09 -48.16 8.57 -55.54 10.84 C-55.75 12.06 -55.95 13.27 -56.16 14.53 C-56.28 15.21 -56.4 15.9 -56.52 16.6 C-56.55 19.52 -55.9 21.26 -54.54 23.84 C-52.63 25.72 -52.63 25.72 -50.16 27.34 C-49.18 28.03 -48.19 28.71 -47.17 29.42 C-41.97 32.91 -36.71 36.3 -31.45 39.7 C11.49 67.52 11.49 67.52 17.46 87.84 C19.61 99.21 19.03 111.5 12.96 121.65 C3.75 134.08 -11.94 139.86 -26.54 142.84 C-54.33 146.74 -82.47 143.82 -105.54 126.84 C-116.72 118.38 -116.72 118.38 -118.54 113.84 C-116.57 110.82 -114.56 107.83 -112.54 104.84 C-111.78 103.68 -111.78 103.68 -111.02 102.5 C-110.53 101.78 -110.04 101.07 -109.54 100.34 C-108.89 99.37 -108.89 99.37 -108.23 98.37 C-105.69 96.07 -103.94 95.81 -100.54 95.84 C-98.4 97.43 -96.83 98.86 -95.04 100.78 C-86.06 109.67 -75.6 115.06 -63.54 118.84 C-62.55 119.17 -61.56 119.5 -60.54 119.84 C-57.61 119.99 -54.72 120.07 -51.79 120.09 C-51 120.11 -50.22 120.13 -49.41 120.15 C-44.02 120.19 -40.35 119.28 -35.54 116.84 C-35.4 115.47 -35.31 114.09 -35.23 112.71 C-35.17 111.95 -35.11 111.18 -35.05 110.39 C-36.15 104.62 -41.15 101.11 -45.75 97.96 C-46.4 97.53 -47.06 97.1 -47.73 96.65 C-48.42 96.19 -49.11 95.72 -49.83 95.24 C-59.09 89.05 -68.55 83.03 -78.37 77.76 C-87 73.11 -93.61 67.67 -100.54 60.84 C-101.24 60.22 -101.94 59.6 -102.66 58.97 C-109.73 52.62 -113.1 43.88 -113.78 34.53 C-114.06 20.48 -111.07 9.49 -101.54 -1.16 C-77.67 -25.03 -23.75 -22.48 0 0 Z " fill="#000000" transform="translate(196.5390625,519.16015625)"/>
<path d="M0 0 C1.72 -0.01 1.72 -0.01 3.48 -0.02 C4.73 -0.02 5.98 -0.02 7.26 -0.02 C8.55 -0.03 9.84 -0.03 11.17 -0.03 C13.91 -0.04 16.65 -0.04 19.39 -0.04 C22.17 -0.04 24.95 -0.05 27.73 -0.06 C80.04 -0.32 80.04 -0.32 97.41 14.15 C107.93 24.91 111.83 37.73 111.77 52.44 C111.5 65.69 107.59 75.13 98.13 84.37 C79.15 101.77 52.59 100.05 28.41 101.15 C28.4 101.77 28.39 102.38 28.38 103.02 C28.3 109.46 28.2 115.9 28.09 122.34 C28.05 124.75 28.01 127.15 27.98 129.56 C27.94 133.01 27.88 136.46 27.82 139.91 C27.8 141.53 27.8 141.53 27.78 143.18 C27.76 144.18 27.74 145.18 27.72 146.21 C27.71 147.1 27.7 147.98 27.68 148.89 C27.41 151.15 27.41 151.15 25.41 154.15 C22.29 154.52 22.29 154.52 18.32 154.51 C17.62 154.51 16.92 154.51 16.19 154.51 C14.71 154.51 13.23 154.5 11.75 154.48 C9.48 154.46 7.21 154.46 4.95 154.47 C-6.18 154.42 -6.18 154.42 -9.59 152.15 C-10.82 148.96 -10.72 145.78 -10.73 142.4 C-10.73 141.22 -10.74 140.05 -10.74 138.84 C-10.74 137.56 -10.74 136.27 -10.74 134.95 C-10.74 133.58 -10.75 132.21 -10.75 130.85 C-10.76 127.13 -10.76 123.42 -10.76 119.7 C-10.76 117.38 -10.76 115.06 -10.77 112.73 C-10.78 104.63 -10.78 96.52 -10.78 88.41 C-10.78 80.86 -10.79 73.32 -10.81 65.77 C-10.82 59.28 -10.82 52.79 -10.82 46.31 C-10.82 42.43 -10.83 38.56 -10.84 34.69 C-10.85 31.05 -10.85 27.4 -10.84 23.76 C-10.84 21.79 -10.85 19.82 -10.85 17.86 C-10.81 6.28 -10.81 6.28 -8.59 1.15 C-5.47 0.1 -3.28 0.01 0 0 Z " fill="#000000" transform="translate(597.594482421875,54.854736328125)"/>
<path d="M0 0 C1.02 0.01 1.02 0.01 2.07 0.02 C4.24 0.04 6.41 0.09 8.58 0.14 C10.05 0.16 11.53 0.18 13 0.2 C16.61 0.24 20.22 0.31 23.83 0.39 C26.38 4.85 27.21 8.09 27.26 13.22 C27.28 14.2 27.28 14.2 27.29 15.21 C27.32 17.35 27.33 19.49 27.34 21.63 C27.36 23.13 27.37 24.62 27.39 26.11 C27.44 30.03 27.47 33.95 27.5 37.86 C27.53 42.57 27.59 47.27 27.64 51.98 C27.72 59.12 27.77 66.25 27.83 73.39 C45.65 73.39 63.47 73.39 81.83 73.39 C81.82 68.44 81.8 63.5 81.79 58.4 C81.79 55.27 81.78 52.14 81.78 49.01 C81.77 44.04 81.77 39.07 81.75 34.1 C81.74 30.09 81.74 26.08 81.73 22.08 C81.73 20.55 81.73 19.02 81.72 17.49 C81.72 15.35 81.71 13.21 81.71 11.07 C81.71 9.85 81.71 8.63 81.71 7.37 C81.83 4.39 81.83 4.39 82.83 1.39 C87.23 -0.81 93.17 0.16 98.06 0.15 C100.25 0.14 102.45 0.11 104.64 0.08 C106.04 0.07 107.43 0.07 108.82 0.06 C110.73 0.05 110.73 0.05 112.67 0.03 C115.83 0.39 115.83 0.39 117.5 1.54 C119.4 4.19 119.2 6.15 119.2 9.39 C119.21 10.65 119.22 11.9 119.22 13.2 C119.22 14.59 119.21 15.98 119.2 17.38 C119.2 18.84 119.21 20.31 119.21 21.77 C119.22 25.75 119.21 29.74 119.2 33.72 C119.19 37.88 119.19 42.04 119.19 46.2 C119.19 53.19 119.18 60.18 119.16 67.17 C119.14 75.25 119.14 83.34 119.15 91.43 C119.15 99.2 119.15 106.97 119.13 114.74 C119.13 118.05 119.13 121.37 119.13 124.68 C119.13 128.57 119.13 132.47 119.11 136.37 C119.1 137.8 119.1 139.23 119.11 140.66 C119.11 142.61 119.1 144.56 119.09 146.51 C119.09 148.15 119.09 148.15 119.08 149.83 C118.83 152.39 118.83 152.39 116.83 154.39 C112.29 154.79 107.73 154.72 103.17 154.71 C100.9 154.7 98.64 154.73 96.37 154.75 C94.93 154.75 93.49 154.75 92.05 154.75 C90.74 154.76 89.43 154.76 88.07 154.76 C84.83 154.39 84.83 154.39 83.15 153.31 C81.13 150.37 81.47 147.88 81.49 144.35 C81.49 143.64 81.49 142.92 81.49 142.19 C81.49 139.84 81.51 137.48 81.54 135.13 C81.54 133.5 81.55 131.86 81.55 130.23 C81.56 125.94 81.59 121.64 81.62 117.34 C81.66 112.19 81.67 107.04 81.69 101.88 C81.72 94.05 81.78 86.22 81.83 78.39 C63.68 78.06 45.53 77.73 26.83 77.39 C26.86 82.61 26.9 87.84 26.93 93.22 C26.95 96.53 26.96 99.84 26.97 103.14 C26.99 108.4 27.01 113.65 27.05 118.9 C27.09 123.13 27.1 127.37 27.11 131.6 C27.12 133.22 27.13 134.83 27.15 136.45 C27.17 138.71 27.17 140.97 27.17 143.24 C27.18 144.52 27.18 145.81 27.19 147.14 C26.81 150.59 26.34 152.02 23.83 154.39 C20.6 154.88 20.6 154.88 16.64 154.85 C15.94 154.85 15.24 154.85 14.52 154.85 C13.05 154.84 11.57 154.83 10.09 154.8 C7.84 154.77 5.58 154.76 3.32 154.76 C-7.73 154.69 -7.73 154.69 -11.17 152.39 C-11.55 149.84 -11.55 149.84 -11.56 146.56 C-11.57 145.32 -11.58 144.07 -11.59 142.79 C-11.59 141.41 -11.58 140.03 -11.58 138.64 C-11.58 137.19 -11.59 135.74 -11.6 134.29 C-11.61 130.33 -11.61 126.38 -11.61 122.43 C-11.6 119.14 -11.61 115.84 -11.62 112.55 C-11.63 104.77 -11.63 97 -11.62 89.23 C-11.61 81.2 -11.62 73.18 -11.65 65.15 C-11.67 58.27 -11.68 51.39 -11.67 44.5 C-11.67 40.39 -11.67 36.28 -11.69 32.16 C-11.7 28.29 -11.7 24.42 -11.68 20.55 C-11.68 19.13 -11.68 17.71 -11.69 16.29 C-11.7 14.35 -11.69 12.42 -11.67 10.48 C-11.67 9.39 -11.67 8.31 -11.67 7.19 C-10.47 0.47 -6.07 -0.1 0 0 Z " fill="#000000" transform="translate(269.171875,54.609375)"/>
<path d="M0 0 C2.05 0.08 4.09 0.15 6.14 0.21 C9.13 0.3 12.12 0.42 15.11 0.54 C16.03 0.56 16.94 0.58 17.88 0.61 C21.5 0.78 24.13 1.02 27.36 2.71 C29.74 7.14 29.31 11.68 29.25 16.62 C29.25 17.72 29.25 18.82 29.24 19.95 C29.24 22.28 29.22 24.6 29.2 26.92 C29.16 30.48 29.16 34.05 29.16 37.61 C29.15 39.87 29.14 42.12 29.12 44.37 C29.12 45.44 29.12 46.51 29.12 47.62 C29.1 48.61 29.09 49.59 29.08 50.61 C29.07 51.92 29.07 51.92 29.05 53.25 C28.79 55.37 28.79 55.37 26.79 57.37 C19.55 56.85 14.53 50.15 10.14 45.14 C7.07 41.52 4.09 37.85 1.11 34.16 C-2.1 30.3 -5.48 26.62 -8.87 22.92 C-10.89 20.72 -12.87 18.49 -14.84 16.24 C-15.39 15.62 -15.94 15 -16.5 14.36 C-17.76 12.89 -18.98 11.39 -20.17 9.87 C-24.02 4.93 -24.02 4.93 -29.59 2.62 C-34.24 3.58 -38.75 4.74 -43.21 6.37 C-43.93 6.63 -44.65 6.89 -45.39 7.15 C-47.91 8.83 -48.28 10.53 -49.21 13.37 C-49.54 14.1 -49.87 14.83 -50.21 15.58 C-54.26 24.82 -56.85 34.66 -53.21 44.37 C-50.67 50.64 -44.59 53.77 -38.71 56.55 C-32.82 59.02 -26.9 61.2 -20.84 63.2 C-20.11 63.44 -19.37 63.68 -18.61 63.93 C-15.57 64.94 -12.54 65.93 -9.49 66.91 C8.19 72.59 23.15 80.36 32.1 97.55 C36.33 106.61 35.43 116.91 32.79 126.37 C28.46 137.82 20.88 146.94 9.79 152.37 C-0.64 156.86 -10.72 158.68 -22.03 158.6 C-23.54 158.6 -23.54 158.6 -25.08 158.6 C-28.31 158.59 -31.54 158.57 -34.78 158.55 C-36.99 158.54 -39.21 158.54 -41.43 158.53 C-52.75 158.47 -64.08 158.4 -75.4 158.05 C-76.35 158.03 -77.3 158.01 -78.28 157.99 C-83.25 157.78 -86.97 157.22 -91.21 154.37 C-92.16 151.52 -92.35 149.71 -92.37 146.76 C-92.38 145.83 -92.39 144.9 -92.4 143.94 C-92.41 142.93 -92.41 141.93 -92.42 140.9 C-92.42 139.86 -92.43 138.83 -92.43 137.77 C-92.44 135.59 -92.45 133.41 -92.45 131.22 C-92.46 127.88 -92.49 124.53 -92.53 121.19 C-92.53 119.07 -92.54 116.95 -92.54 114.83 C-92.55 113.83 -92.57 112.83 -92.58 111.79 C-92.58 110.86 -92.57 109.93 -92.57 108.97 C-92.57 108.15 -92.58 107.33 -92.58 106.49 C-92.12 103.85 -91.33 102.96 -89.21 101.37 C-86.45 101.26 -84.87 101.82 -82.74 103.59 C-81.08 105.26 -79.52 106.98 -77.96 108.74 C-77.39 109.37 -76.82 110.01 -76.23 110.66 C-72.13 115.22 -68.22 119.93 -64.39 124.72 C-61.3 128.48 -57.99 132.02 -54.7 135.59 C-51.43 139.24 -48.37 143.03 -45.32 146.86 C-44.62 147.69 -43.93 148.51 -43.21 149.37 C-42.11 150.74 -42.11 150.74 -40.98 152.15 C-37.2 155.18 -34.48 155.08 -29.78 154.93 C-29.04 154.94 -28.3 154.95 -27.54 154.96 C-22.33 154.89 -19.36 153.72 -15.21 150.37 C-9.55 144.54 -6.25 136.42 -6.19 128.31 C-6.74 119.75 -7.89 113.37 -14.09 107.18 C-18.77 103.53 -24.23 101.98 -29.82 100.16 C-34.87 98.49 -39.88 96.7 -44.9 94.93 C-46.47 94.39 -46.47 94.39 -48.07 93.84 C-63.55 88.37 -81.28 79.37 -89.14 64.14 C-93.92 51.76 -94.71 38.82 -89.31 26.58 C-84.1 16.06 -75.23 8.41 -64.37 4.05 C-43.63 -2.55 -21.44 -0.85 0 0 Z " fill="#000000" transform="translate(201.21337890625,52.634765625)"/>
<path d="M0 0 C19.58 0.74 32.12 9.37 45.26 23.09 C47.24 25.18 47.24 25.18 50.2 27.43 C50.84 27.95 51.48 28.46 52.14 29 C52.14 29.66 52.14 30.32 52.14 31 C53.11 31.31 54.08 31.61 55.07 31.93 C58.14 33 58.14 33 59.14 34 C63.61 34.7 66.68 32.93 70.61 31.08 C76.15 28.71 82.09 27.5 87.92 26.06 C90.75 25.36 93.57 24.6 96.38 23.81 C120.07 17.29 143.74 16.5 168.14 17 C168.14 17.66 168.14 18.32 168.14 19 C168.8 19 169.46 19 170.14 19 C170.14 19.66 170.14 20.32 170.14 21 C168.83 21.45 168.83 21.45 167.5 21.91 C159.59 24.69 151.84 27.7 144.14 31 C138.05 33.57 131.96 36.07 125.76 38.37 C119.6 40.7 113.85 43.57 108.04 46.64 C105.14 48 105.14 48 102.14 48 C102.14 48.66 102.14 49.32 102.14 50 C100.82 50 99.5 50 98.14 50 C98.14 50.66 98.14 51.32 98.14 52 C97.61 52.25 97.07 52.5 96.53 52.77 C92.8 54.58 89.34 56.33 86.14 59 C86.54 64.29 89.47 67.44 92.64 71.43 C97.74 78.05 102.39 84.79 106.81 91.88 C108.39 94.4 109.99 96.91 111.59 99.41 C112.84 101.36 114.08 103.3 115.32 105.25 C115.91 106.16 116.49 107.07 117.09 108.01 C122.86 117.07 128.35 126.03 132.82 135.81 C135.61 141.94 135.61 141.94 138.86 147.83 C140.6 150.79 140.81 153.62 141.14 157 C132.16 155.67 124.6 145.68 119.14 139 C117.82 137.45 116.51 135.91 115.19 134.36 C111.28 129.77 107.43 125.13 103.64 120.43 C95.09 109.99 85.84 100.67 75.93 91.54 C72.75 88.61 69.7 85.57 66.69 82.47 C64.55 80.44 62.76 79.11 59.83 78.56 C55.99 79.18 53.79 81.39 51.01 83.93 C49.86 84.95 48.7 85.97 47.54 86.98 C46.97 87.49 46.4 88 45.8 88.53 C43.42 90.62 40.97 92.62 38.51 94.62 C37.63 95.34 36.74 96.07 35.83 96.81 C33.99 98.31 32.14 99.79 30.29 101.27 C21.9 108.03 14.75 115.02 8.12 123.51 C6.27 125.83 4.34 128 2.32 130.18 C-1.86 134.81 -5.47 139.79 -9.09 144.86 C-9.76 145.79 -9.76 145.79 -10.45 146.74 C-10.84 147.29 -11.23 147.85 -11.64 148.42 C-12.97 150.13 -14.19 151.61 -15.86 153 C-19.55 153.18 -19.55 153.18 -22.86 153 C-22.86 152.34 -22.86 151.68 -22.86 151 C-23.85 150.67 -24.84 150.34 -25.86 150 C-27.34 146.4 -27.2 142.28 -27.43 138.43 C-27.47 137.76 -27.51 137.09 -27.56 136.4 C-27.88 131.24 -27.68 127.23 -26.36 122.22 C-25.87 120.03 -25.69 117.98 -25.55 115.75 C-25.02 110.73 -23.25 106.98 -20.8 102.62 C-20.4 101.89 -20 101.15 -19.58 100.4 C-9.52 82.4 4.03 71.12 21.14 60 C23.14 58.67 25.14 57.33 27.14 56 C27.32 53.04 27.31 51.65 26.14 49 C23.38 46.56 20.26 44.84 17.05 43.06 C14.88 41.85 12.74 40.59 10.6 39.32 C3.68 35.23 -3.23 31.21 -10.49 27.75 C-15.86 25.16 -20.34 21.86 -24.86 18 C-24.4 13.06 -23.38 10.51 -19.86 7 C-13.38 1.74 -8.26 -0.01 0 0 Z " fill="#ED0F07" transform="translate(1037.86328125,510.00390625)"/>
<path d="M0 0 C10.87 10.01 15.57 22.05 16.24 36.63 C16.73 52.2 15.66 66.63 4.99 78.84 C4.45 79.49 3.9 80.15 3.34 80.82 C-5.92 91.03 -20.12 94.21 -33.4 95.05 C-69.1 96.38 -69.1 96.38 -84.01 87.84 C-84.76 87.4 -85.52 86.97 -86.3 86.53 C-96.97 79.93 -101.46 72.23 -104.69 60.32 C-108.96 41.13 -106.16 20.65 -95.86 3.98 C-88.57 -6.05 -74.54 -9.26 -63.07 -11.41 C-42.6 -14.17 -16.55 -13.96 0 0 Z " fill="#FCFCFC" transform="translate(973.0078125,87.1640625)"/>
<path d="M0 0 C1.1 0.55 2.19 1.11 3.32 1.68 C4.13 2.06 4.95 2.44 5.78 2.84 C13.48 6.67 18.85 11.7 24.7 17.93 C26.4 19.73 28.12 21.53 29.84 23.32 C30.59 24.11 31.33 24.9 32.09 25.71 C34.44 27.78 36.37 28.71 39.32 29.68 C39.98 29.92 40.63 30.17 41.31 30.42 C44.13 30.78 45.91 29.92 48.51 28.8 C49.39 28.44 50.27 28.07 51.18 27.69 C53.25 26.86 53.25 26.86 54.32 25.68 C56.25 25.23 58.19 24.82 60.13 24.43 C66.2 23.17 72.19 21.72 78.2 20.18 C96.43 15.57 114.01 13.64 132.82 13.49 C133.84 13.48 134.85 13.47 135.9 13.45 C141.73 13.45 146.73 14 152.32 15.68 C152.32 16.34 152.32 17 152.32 17.68 C150.34 17.68 148.36 17.68 146.32 17.68 C146.32 18.34 146.32 19 146.32 19.68 C145.67 19.92 145.01 20.16 144.34 20.41 C132.2 24.9 120.15 29.43 108.32 34.68 C104.8 36.2 101.28 37.7 97.73 39.15 C90.19 42.29 83 45.8 75.95 49.93 C75.21 50.35 74.48 50.78 73.73 51.22 C73.05 51.62 72.37 52.03 71.67 52.45 C71.07 52.8 70.47 53.16 69.85 53.53 C68.02 54.77 68.02 54.77 66.32 57.68 C66.72 58.18 67.12 58.68 67.54 59.19 C74.9 68.5 81.52 78.3 87.88 88.32 C89.79 91.33 91.74 94.32 93.76 97.27 C99.81 106.11 105.13 115.22 110.22 124.65 C111.22 126.49 112.25 128.31 113.28 130.12 C113.83 131.09 114.38 132.06 114.95 133.05 C115.65 134.27 115.65 134.27 116.36 135.52 C117.32 137.68 117.32 137.68 117.32 141.68 C117.98 141.68 118.64 141.68 119.32 141.68 C122.4 146.97 122.4 146.97 122.01 150.55 C121.78 151.26 121.55 151.96 121.32 152.68 C115.05 150.57 111.03 146.16 106.32 141.68 C105.67 141.08 105.03 140.47 104.36 139.85 C100.53 136.15 97.29 132.18 94.07 127.94 C91.9 125.14 89.57 122.51 87.19 119.89 C85.32 117.68 85.32 117.68 84.21 116.09 C79.67 109.69 74.19 104.28 68.63 98.78 C66.95 97.12 65.28 95.46 63.62 93.79 C53.53 83.59 53.53 83.59 42.32 74.68 C38.54 74.82 36.25 77.13 33.45 79.49 C32.48 80.3 31.51 81.11 30.52 81.95 C26.48 85.38 22.46 88.84 18.45 92.3 C15.08 95.21 11.65 98.01 8.13 100.74 C-1.83 108.67 -9.69 117.93 -17.36 127.98 C-20.08 131.49 -22.95 134.88 -25.8 138.28 C-27.66 140.65 -29.14 143.1 -30.68 145.68 C-33.19 148.13 -34.78 149.5 -38.24 150.18 C-41.53 149.51 -42.67 148.34 -44.68 145.68 C-45.43 142.93 -45.43 142.93 -45.68 140.68 C-45.02 140.68 -44.36 140.68 -43.68 140.68 C-44.34 140.02 -45 139.36 -45.68 138.68 C-46.09 136.11 -46.09 136.11 -46.3 133.12 C-46.38 132.13 -46.45 131.13 -46.53 130.11 C-46.74 126.67 -46.04 123.95 -45.21 120.59 C-44.64 117.81 -44.64 117.81 -44.57 115.48 C-44.18 108.52 -42.12 103.71 -38.62 97.74 C-38.12 96.87 -37.62 96 -37.11 95.1 C-28.93 80.98 -19.89 71.24 -6.22 62.34 C-1.75 59.43 2.47 56.35 6.59 52.96 C8.32 51.68 8.32 51.68 11.32 50.68 C8.91 45.43 5.36 43.55 0.51 40.87 C-0.63 40.22 -0.63 40.22 -1.8 39.55 C-3.35 38.67 -4.91 37.79 -6.47 36.92 C-8.43 35.82 -10.38 34.7 -12.32 33.57 C-17.22 30.72 -22.13 27.94 -27.19 25.36 C-27.95 24.97 -28.72 24.57 -29.51 24.16 C-31 23.4 -32.5 22.65 -34 21.91 C-38.21 19.76 -41.07 17.79 -43.68 13.68 C-43.78 9.78 -42.04 7.08 -39.42 4.24 C-27.97 -6.01 -13.61 -5.8 0 0 Z " fill="#ED0F07" transform="translate(1031.6796875,56.3203125)"/>
<path d="M0 0 C15.48 9.23 23.19 29.63 27.81 46.21 C35.16 76.5 31.27 109.42 15.04 136.18 C10.63 143.14 6.25 147.98 -1.19 151.62 C-1.85 151.96 -2.51 152.28 -3.19 152.62 C-13.61 153.67 -19.64 152.07 -27.68 145.63 C-44.15 130.78 -51.06 103.98 -52.19 82.62 C-52.24 81.79 -52.29 80.95 -52.35 80.08 C-53.18 54.39 -45.5 25.93 -28.68 6.08 C-21.16 -1.24 -9.92 -4.26 0 0 Z " fill="#FDFDFD" transform="translate(498.1875,56.375)"/>
<path d="M0 0 C9.62 -0.07 19.25 -0.12 28.87 -0.16 C33.34 -0.17 37.81 -0.19 42.28 -0.23 C46.6 -0.26 50.91 -0.28 55.23 -0.28 C56.87 -0.29 58.52 -0.3 60.16 -0.32 C79.42 -0.5 79.42 -0.5 86.3 4.76 C92.43 12.27 94.62 18.31 94.35 28.09 C93.67 33.74 91.54 37.46 87.56 41.44 C84.95 43.03 82.98 43.5 80 44 C79.5 44.99 79.5 44.99 79 46 C79.99 45.67 80.98 45.34 82 45 C88.89 45.84 93.12 49.35 97.4 54.6 C100.95 59.93 101.56 65.67 101 72 C99.37 78.46 97.54 84.65 91.62 88.25 C86.34 91.19 80.84 91.15 74.92 91.13 C73.72 91.13 73.72 91.13 72.5 91.13 C69.87 91.14 67.24 91.14 64.61 91.13 C62.78 91.13 60.95 91.13 59.12 91.14 C55.3 91.14 51.47 91.14 47.64 91.13 C42.73 91.12 37.81 91.13 32.9 91.13 C29.12 91.14 25.35 91.14 21.58 91.13 C19.77 91.13 17.95 91.13 16.14 91.14 C13.61 91.14 11.09 91.13 8.56 91.13 C7.81 91.13 7.05 91.13 6.27 91.14 C1.11 91.11 1.11 91.11 0 90 C-0.4 86.14 -0.44 82.25 -0.56 78.38 C-0.63 76.48 -0.63 76.48 -0.69 74.54 C-1.12 60.01 -1.11 45.47 -1.12 30.94 C-1.13 29.08 -1.13 29.08 -1.13 27.18 C-1.14 23.61 -1.14 20.04 -1.13 16.46 C-1.13 15.38 -1.14 14.3 -1.14 13.19 C-1.14 12.18 -1.13 11.18 -1.13 10.14 C-1.13 9.26 -1.13 8.39 -1.13 7.49 C-1 4.91 -0.57 2.52 0 0 Z " fill="#FCFCFC" transform="translate(791,538)"/>
<path d="M0 0 C1.65 -0.01 3.3 0 4.96 0.04 C6.29 0.04 6.29 0.04 7.65 0.05 C9.53 0.06 11.42 0.08 13.31 0.11 C16.14 0.16 18.97 0.17 21.8 0.18 C61.82 0.43 61.82 0.43 71.57 9.78 C76.4 15.62 79.23 21.7 79.14 29.29 C79.13 30.28 79.12 31.27 79.11 32.3 C79.1 33.06 79.09 33.82 79.07 34.6 C71.62 38.19 64.09 41.47 56.39 44.47 C55.6 44.78 54.81 45.09 53.99 45.41 C48.33 47.6 48.33 47.6 46.07 47.6 C46.4 48.26 46.73 48.92 47.07 49.6 C47.75 49.55 48.43 49.51 49.14 49.46 C55.53 49.22 61.32 49.84 67.51 51.35 C68.18 51.51 68.86 51.66 69.55 51.82 C75.48 53.37 79.37 56.15 82.82 61.16 C83.23 61.74 83.64 62.32 84.06 62.92 C87.66 68.89 86.8 77.84 86.07 84.6 C84.4 90.68 81.44 95.35 75.99 98.65 C60.73 106.23 41.98 105 25.39 105.02 C21.72 105.04 18.06 105.09 14.4 105.14 C12.06 105.15 9.73 105.15 7.4 105.16 C5.76 105.19 5.76 105.19 4.08 105.22 C3.07 105.21 2.07 105.2 1.03 105.2 C0.14 105.2 -0.75 105.21 -1.66 105.21 C-3.93 104.6 -3.93 104.6 -5.71 102.63 C-7.37 98.5 -7.35 94.89 -7.31 90.48 C-7.32 89.57 -7.32 88.66 -7.33 87.73 C-7.34 84.73 -7.33 81.73 -7.32 78.72 C-7.33 76.64 -7.33 74.55 -7.33 72.46 C-7.34 68.08 -7.33 63.71 -7.32 59.34 C-7.3 53.73 -7.31 48.12 -7.33 42.52 C-7.34 38.21 -7.34 33.9 -7.33 29.58 C-7.33 27.52 -7.33 25.45 -7.34 23.38 C-7.34 20.49 -7.33 17.61 -7.31 14.72 C-7.32 13.86 -7.33 13.01 -7.33 12.13 C-7.27 5.93 -7.01 1.07 0 0 Z " fill="#FCFCFC" transform="translate(774.92626953125,76.400634765625)"/>
<path d="M0 0 C8.9 7.59 15.76 16.84 17.08 28.76 C18.19 45.49 14.95 58.76 4.81 72.31 C2.36 74.81 -0.15 76.59 -3.19 78.31 C-3.96 78.77 -4.73 79.23 -5.53 79.7 C-19.52 87.39 -36.97 86.9 -52.19 83.31 C-60.16 80.9 -66.98 77.9 -73.19 72.31 C-73.88 71.72 -74.56 71.12 -75.27 70.5 C-82.8 63.55 -87.69 54.48 -88.41 44.16 C-88.78 30 -85.18 17.77 -75.81 7 C-57.45 -12.21 -21.6 -16.34 0 0 Z " fill="#FDFDFD" transform="translate(984.1875,545.6875)"/>
<path d="M0 0 C2.83 2.97 4.38 6.26 6 10 C6.58 11.32 6.58 11.32 7.18 12.66 C16.06 35.71 14.51 69.24 9 93 C8.83 93.94 8.67 94.88 8.5 95.86 C7.61 100.74 6.09 104.12 3 108 C2.3 108.95 1.6 109.9 0.88 110.88 C-2.77 113.57 -5.07 113.67 -9.51 113.41 C-16.16 112.32 -20.32 108.27 -24.44 103.23 C-32.15 92.2 -34.51 75.21 -35 62 C-35.08 60.72 -35.08 60.72 -35.16 59.41 C-35.64 45.17 -33.01 30.97 -28.56 17.5 C-28.27 16.62 -27.99 15.74 -27.69 14.84 C-25.81 9.46 -23.92 4.9 -18.96 1.67 C-18.3 1.37 -17.63 1.06 -16.94 0.75 C-16.27 0.44 -15.59 0.12 -14.9 -0.2 C-9.54 -2.45 -5.35 -2.35 0 0 Z " fill="#FDFDFD" transform="translate(491,527)"/>
<path d="M0 0 C11.03 9.24 15.11 22.11 17.31 35.94 C17.72 40.74 17.79 45.5 17.75 50.31 C17.74 51.58 17.73 52.85 17.73 54.15 C17.48 68.39 15.34 84.28 5.22 95.2 C1.22 98.77 -1.89 101.45 -7.49 101.34 C-14.12 100.13 -20.18 96.3 -24.12 90.88 C-31.01 79.09 -33.07 64.68 -33 51.25 C-33 50.2 -32.99 49.15 -32.99 48.06 C-32.76 32.52 -30.01 16.11 -19.25 4.25 C-13.35 -1.07 -7.66 -3.03 0 0 Z " fill="#000000" transform="translate(935.6875,79.0625)"/>
<path d="M0 0 C2.89 1.57 4.7 3.43 6.79 5.97 C7.28 6.55 7.77 7.12 8.28 7.72 C19.59 21.67 20.03 39.78 18.79 56.97 C17.26 69.01 13.13 80.04 3.5 87.81 C-2.62 91.94 -8.71 92.12 -15.96 92.16 C-17.28 92.17 -18.59 92.18 -19.95 92.2 C-23.21 91.97 -23.21 91.97 -25.21 89.97 C-25.4 87.08 -25.47 84.28 -25.44 81.39 C-25.44 80.5 -25.44 79.61 -25.44 78.7 C-25.44 75.75 -25.43 72.81 -25.41 69.87 C-25.41 67.83 -25.4 65.79 -25.4 63.76 C-25.39 58.39 -25.37 53.02 -25.35 47.65 C-25.33 42.17 -25.32 36.69 -25.31 31.22 C-25.29 20.47 -25.26 9.72 -25.21 -1.03 C-17.68 -3.54 -7.36 -2.97 0 0 Z " fill="#FCFCFC" transform="translate(650.21484375,60.03125)"/>
<path d="M0 0 C0.74 0.01 1.48 0.01 2.24 0.02 C14.3 0.19 14.3 0.19 18.04 2.93 C27.1 13.42 28.91 23.66 27.97 37.17 C27.22 44.29 25.05 49.47 19.75 54.31 C15.51 57.7 12.26 59.51 6.77 59.45 C5.83 59.44 4.9 59.43 3.93 59.43 C2.48 59.4 2.48 59.4 1 59.38 C0.02 59.37 -0.97 59.36 -1.98 59.35 C-4.4 59.32 -6.83 59.29 -9.25 59.25 C-11.72 53.49 -11.56 47.98 -11.55 41.83 C-11.56 40.74 -11.56 39.64 -11.56 38.52 C-11.57 36.21 -11.57 33.91 -11.57 31.6 C-11.56 28.06 -11.59 24.53 -11.61 20.99 C-11.61 18.75 -11.61 16.51 -11.61 14.27 C-11.62 13.21 -11.63 12.15 -11.64 11.06 C-11.63 10.08 -11.63 9.1 -11.62 8.09 C-11.62 7.22 -11.62 6.36 -11.62 5.47 C-10.55 -0.87 -5.28 -0.14 0 0 Z " fill="#FDFDFD" transform="translate(651.25,528.75)"/>
<path d="M0 0 C0.98 1.91 1.96 3.83 2.94 5.75 C3.48 6.82 4.03 7.88 4.59 8.98 C6.87 13.85 7.17 18.07 7.2 23.41 C7.21 24.13 7.21 24.85 7.22 25.59 C7.23 27.12 7.24 28.64 7.24 30.17 C7.25 32.46 7.28 34.76 7.31 37.05 C7.38 46.81 7.21 56.54 2.12 65.19 C-0.5 67.43 -1.52 68.16 -5 68 C-9.59 65.87 -13.32 63.36 -16 59 C-21.84 42.7 -21.97 25.28 -16 9 C-11.34 1.35 -8.8 -0.44 0 0 Z " fill="#000000" transform="translate(955,550)"/>
<path d="M0 0 C8.11 -0.4 16.98 0.51 24 5 C30.21 12.98 31.51 21.45 30.84 31.32 C29.73 37.75 25.24 42.4 20.31 46.36 C15.75 49.51 12.26 50.12 6.81 50.06 C5.18 50.05 5.18 50.05 3.52 50.04 C2.69 50.02 1.86 50.01 1 50 C-0.65 44.97 -1.29 40.5 -1.23 35.2 C-1.23 34.47 -1.23 33.75 -1.23 33 C-1.23 31.48 -1.22 29.96 -1.21 28.44 C-1.19 26.14 -1.19 23.84 -1.19 21.54 C-1.17 14.3 -1.02 7.18 0 0 Z " fill="#000000" transform="translate(799,128)"/>
<path d="M0 0 C8.1 -0.45 15.06 -0.61 22 4 C27.51 9.36 29.19 15.02 29.44 22.5 C29.25 29.23 28.15 32.72 23.42 37.64 C17.24 43.36 11.39 45.35 3.04 45.2 C1 45 1 45 0 44 C-2.1 29.46 -1 14.59 0 0 Z " fill="#000000" transform="translate(799,80)"/>
<path d="M0 0 C0.76 -0.03 1.52 -0.07 2.3 -0.1 C6.5 -0.14 8.19 0.05 11.61 2.71 C15.85 8.27 16.44 12.51 15.69 19.44 C14.3 22.46 13.02 24.11 10.69 26.44 C8.64 26.68 8.64 26.68 6.15 26.67 C5.26 26.67 4.37 26.66 3.45 26.66 C2.52 26.65 1.59 26.64 0.62 26.62 C-0.78 26.62 -0.78 26.62 -2.21 26.62 C-9.17 26.58 -9.17 26.58 -10.31 25.44 C-10.56 21.63 -10.5 17.81 -10.5 14 C-10.51 12.92 -10.52 11.85 -10.54 10.74 C-10.54 9.71 -10.54 8.69 -10.54 7.63 C-10.55 6.68 -10.55 5.74 -10.56 4.76 C-9.95 -1.07 -4.6 0.03 0 0 Z " fill="#000000" transform="translate(836.3125,589.5625)"/>
<path d="M0 0 C4.3 2.9 5.69 6.15 7.06 11.06 C7.65 16.14 7.13 18.97 4.06 23.06 C3.7 23.6 3.34 24.13 2.96 24.68 C-0.08 26.89 -3.39 26.49 -7 26.44 C-7.73 26.45 -8.47 26.46 -9.22 26.47 C-11.35 26.46 -11.35 26.46 -14.94 26.06 C-17.17 22.71 -17.18 21.64 -17.13 17.74 C-17.13 16.71 -17.12 15.68 -17.11 14.62 C-17.09 13.02 -17.09 13.02 -17.06 11.38 C-17.05 10.29 -17.04 9.21 -17.04 8.09 C-17.01 5.42 -16.98 2.74 -16.94 0.06 C-12.19 -2.31 -4.97 -1.61 0 0 Z " fill="#000000" transform="translate(842.9375,549.9375)"/>
</svg>
