<svg width="24" height="24" viewBox="0 0 24 24" fill="none" xmlns="http://www.w3.org/2000/svg">
<path d="M6.34991 8.32333H2.34873C2.22685 8.32333 2.10995 8.37175 2.02377 8.45794C1.93758 8.54412 1.88916 8.66102 1.88916 8.7829V15.217C1.88916 15.3388 1.93758 15.4557 2.02377 15.5419C2.10995 15.6281 2.22685 15.6765 2.34873 15.6765H6.34991C6.56234 15.6766 6.76818 15.7503 6.93242 15.8851L12.1871 20.1936C12.2556 20.244 12.3368 20.2744 12.4215 20.2814C12.5063 20.2884 12.5914 20.2717 12.6672 20.2332C12.7431 20.1948 12.8068 20.136 12.8512 20.0635C12.8957 19.991 12.9191 19.9075 12.919 19.8225V4.17739C12.9189 4.09243 12.8953 4.00914 12.8508 3.93679C12.8063 3.86443 12.7425 3.80583 12.6667 3.7675C12.5909 3.72917 12.5059 3.71261 12.4213 3.71966C12.3366 3.72671 12.2555 3.75709 12.1871 3.80743L6.93242 8.11595C6.76802 8.25027 6.5622 8.32355 6.34991 8.32333Z" stroke="#8A92A6" stroke-linecap="round" stroke-linejoin="round"/>
<path d="M17.5151 15.6765C18.0747 14.5615 18.4343 13.3321 18.4343 11.9999C18.4343 10.6493 18.0896 9.44926 17.5151 8.3233" stroke="#8A92A6" stroke-linecap="round" stroke-linejoin="round"/>
<path d="M20.2725 18.4339C21.3915 16.4808 22.1108 14.7574 22.1108 11.9999C22.1108 9.24245 21.4214 7.53628 20.2725 5.56586" stroke="#8A92A6" stroke-linecap="round" stroke-linejoin="round"/>
</svg>
