<svg width="24" height="24" viewBox="0 0 24 24" fill="none" xmlns="http://www.w3.org/2000/svg">
<g clip-path="url(#clip0_457_421)">
<path d="M0.902302 5.14799C1.0199 4.69439 1.1039 4.22879 1.2599 3.78719C1.6319 2.73839 2.2079 1.79999 2.9279 0.952787C2.9447 0.931187 2.9663 0.914387 3.0071 0.878387C4.1039 2.22479 4.9319 3.67679 5.0975 5.45999C5.3351 5.30879 5.5607 5.16719 5.7839 5.02319C7.8191 3.71999 9.8543 2.41919 11.8871 1.11359C11.9999 1.04159 12.0791 1.01279 12.2111 1.09679C15.7751 3.38639 19.3463 5.66879 22.9127 7.95359C22.9559 7.97999 22.9943 8.01119 23.0543 8.05199C22.9319 8.24399 22.8119 8.43119 22.6799 8.63759C22.1591 8.30639 21.6479 7.97999 21.1367 7.65359C18.1727 5.75279 15.2015 3.85439 12.2351 1.94879C12.1031 1.86479 12.0167 1.86959 11.8871 1.95119C9.6095 3.41519 7.3295 4.87199 5.0543 6.33359C4.9799 6.38159 4.9151 6.46079 4.8743 6.53999C4.7087 6.85439 4.4903 7.12319 4.1951 7.31999C4.0967 7.38479 4.0607 7.44719 4.0775 7.56719C4.1351 7.96079 4.1831 8.35439 4.2383 8.79119C4.3391 8.73119 4.4183 8.68799 4.4927 8.63999C6.9551 7.06319 9.4199 5.48879 11.8799 3.90719C12.0143 3.82079 12.1031 3.81599 12.2423 3.90479C15.1367 5.76239 18.0335 7.61519 20.9327 9.46559C21.0767 9.55679 21.1343 9.65279 21.1319 9.82799C21.1271 13.9032 21.1271 17.9784 21.1271 22.0536C21.1271 22.14 21.1271 22.224 21.1271 22.3296C21.8255 22.3296 22.5047 22.3296 23.2031 22.3296C23.2031 22.5768 23.2031 22.8024 23.2031 23.04C22.2839 23.04 21.3719 23.04 20.4335 23.04C20.4335 22.9392 20.4335 22.848 20.4335 22.7568C20.4335 18.588 20.4335 14.4192 20.4383 10.248C20.4383 10.0632 20.3927 9.95279 20.2271 9.84719C17.5703 8.15759 14.9183 6.45839 12.2687 4.75679C12.1199 4.66079 12.0191 4.65599 11.8655 4.75439C9.4151 6.32879 6.9647 7.89599 4.5119 9.46079C4.3751 9.54719 4.3463 9.62879 4.3703 9.79199C4.5023 10.6824 4.6151 11.5728 4.7303 12.4656C4.7423 12.5664 4.7375 12.6696 4.7375 12.7704C4.7375 14.0784 4.7375 15.384 4.7375 16.7232C4.8119 16.6872 4.8695 16.6632 4.9199 16.6344C5.6111 16.236 6.2999 15.8328 6.9959 15.4416C7.1327 15.3648 7.1855 15.2832 7.1831 15.1224C7.1759 13.1976 7.1783 11.2728 7.1783 9.34799C7.1783 9.26879 7.1783 9.19199 7.1783 9.10079C10.4351 9.10079 13.6703 9.10079 16.9343 9.10079C16.9343 10.776 16.9343 12.4488 16.9343 14.1432C17.1959 14.076 17.4239 14.016 17.6831 13.9488C17.7407 14.1504 17.7983 14.3496 17.8511 14.5464C18.0959 15.456 18.3455 16.3632 18.5807 17.2752C18.6167 17.4192 18.6767 17.4648 18.8183 17.4576C18.9983 17.448 19.1783 17.4552 19.3679 17.4552C19.3679 19.3272 19.3679 21.1776 19.3679 23.0376C13.7999 23.0376 8.2391 23.0376 2.6615 23.0376C2.6615 21.1848 2.6615 19.332 2.6615 17.4552C2.8103 17.4552 2.9543 17.4432 3.0959 17.4576C3.3671 17.484 3.6047 17.4144 3.8351 17.268C3.9791 17.1768 4.0439 17.0904 4.0415 16.9104C4.0319 15.6672 4.0367 14.4264 4.0367 13.1832C4.0367 13.1112 4.0367 13.0392 4.0367 12.9552C3.3359 12.9552 2.6519 12.9552 1.9487 12.9552C1.9487 16.3152 1.9487 19.668 1.9487 23.0352C1.7111 23.0352 1.4903 23.0352 1.2479 23.0352C1.2479 22.9488 1.2479 22.8696 1.2479 22.7928C1.2479 19.4304 1.2383 16.0656 1.2575 12.7032C1.2599 12.1488 1.3751 11.5944 1.4471 11.04C1.5959 9.90479 1.7495 8.76959 1.9055 7.63439C1.9271 7.48559 1.9007 7.38719 1.7639 7.29119C1.3271 6.98879 1.0655 6.56399 0.945502 6.04799C0.935902 6.00719 0.916702 5.96879 0.899902 5.93039C0.902302 5.67119 0.902302 5.40959 0.902302 5.14799ZM5.3015 17.2296C5.3063 17.2392 5.3111 17.2512 5.3159 17.2608C8.9135 16.296 12.5087 15.3312 16.1327 14.3592C15.6335 13.4976 15.1511 12.6624 14.6663 11.8224C11.5271 13.6344 8.4143 15.432 5.3015 17.2296ZM3.3551 18.18C3.3551 19.5768 3.3551 20.9448 3.3551 22.3224C4.9799 22.3224 6.5951 22.3224 8.2103 22.3224C8.2103 20.9328 8.2103 19.5576 8.2103 18.18C6.5879 18.18 4.9775 18.18 3.3551 18.18ZM17.1935 14.808C13.9415 15.6792 10.7183 16.5432 7.4975 17.4072C7.4999 17.4192 7.5023 17.4288 7.5047 17.4408C10.9655 17.4408 14.4239 17.4408 17.9015 17.4408C17.6639 16.5576 17.4311 15.6936 17.1935 14.808ZM8.9327 22.3248C9.8687 22.3248 10.7783 22.3248 11.7023 22.3248C11.7023 20.94 11.7023 19.5648 11.7023 18.1848C10.7735 18.1848 9.8567 18.1848 8.9327 18.1848C8.9327 19.5696 8.9327 20.9376 8.9327 22.3248ZM12.4223 18.18C12.4223 19.5648 12.4223 20.94 12.4223 22.32C13.3511 22.32 14.2679 22.32 15.1847 22.32C15.1847 20.9304 15.1847 19.5552 15.1847 18.18C14.2583 18.18 13.3463 18.18 12.4223 18.18ZM18.6743 22.3248C18.6743 20.94 18.6743 19.5648 18.6743 18.1848C17.7455 18.1848 16.8287 18.1848 15.9119 18.1848C15.9119 19.5744 15.9119 20.9496 15.9119 22.3248C16.8383 22.3248 17.7503 22.3248 18.6743 22.3248ZM7.8863 12.5544C9.1703 12.5544 10.4351 12.5544 11.7023 12.5544C11.7023 11.6328 11.7023 10.728 11.7023 9.81359C10.4255 9.81359 9.1607 9.81359 7.8863 9.81359C7.8863 10.7304 7.8863 11.6352 7.8863 12.5544ZM2.6495 5.61119C2.8943 5.61119 3.1079 5.61119 3.3431 5.61119C3.3431 6.05759 3.3431 6.48959 3.3431 6.94799C3.8303 6.79919 4.1399 6.50639 4.3079 6.05519C4.4399 5.69759 4.3895 5.33759 4.3295 4.97999C4.1519 3.94559 3.6791 3.03599 3.1031 2.17199C3.0719 2.12639 3.0359 2.08559 2.9759 2.01359C2.7623 2.37359 2.5487 2.70239 2.3639 3.04319C1.9415 3.82079 1.6367 4.63919 1.6031 5.53679C1.5887 5.99999 1.7591 6.39359 2.1263 6.68159C2.2703 6.79679 2.4503 6.86639 2.6495 6.97919C2.6495 6.48239 2.6495 6.05519 2.6495 5.61119ZM14.9231 10.8624C15.3575 11.6136 15.7823 12.348 16.2287 13.116C16.2287 11.9808 16.2287 10.896 16.2287 9.81599C14.9519 9.81599 13.6895 9.81599 12.4295 9.81599C12.4295 10.6464 12.4295 11.4648 12.4295 12.3024C13.2671 11.8152 14.0831 11.3448 14.9231 10.8624ZM3.9839 12.2112C3.7823 10.692 3.5807 9.18719 3.3815 7.69199C3.1103 7.69199 2.8631 7.69199 2.6087 7.69199C2.4071 9.19919 2.2079 10.6968 2.0063 12.2112C2.6759 12.2112 3.3167 12.2112 3.9839 12.2112ZM10.6295 13.3392C10.6247 13.3272 10.6223 13.3176 10.6175 13.3056C9.7079 13.3056 8.7983 13.3056 7.8911 13.3056C7.8911 13.8456 7.8911 14.3712 7.8911 14.9208C8.8175 14.3856 9.7247 13.8624 10.6295 13.3392Z" fill="#8A92A6"/>
<path d="M7.17845 20.2704C7.17365 21.0264 6.54966 21.6504 5.78886 21.6552C5.01846 21.66 4.38726 21.0192 4.38966 20.2368C4.39206 19.4784 5.01846 18.8568 5.77926 18.852C6.55686 18.8472 7.18325 19.4832 7.17845 20.2704ZM5.79605 19.5672C5.40965 19.5624 5.09526 19.8624 5.08806 20.2416C5.07846 20.6136 5.39285 20.9352 5.77205 20.94C6.15605 20.9448 6.47286 20.6448 6.48006 20.2656C6.49206 19.8936 6.17525 19.5696 5.79605 19.5672Z" fill="#8A92A6"/>
</g>
<defs>
<clipPath id="clip0_457_421">
<rect width="24" height="24" fill="white"/>
</clipPath>
</defs>
</svg>
